<svg width="45" height="45" viewBox="0 0 45 45" fill="none" xmlns="http://www.w3.org/2000/svg">
<g clip-path="url(#clip0)">
<path d="M44.1513 20.4952L24.5039 0.848872C23.3731 -0.282632 21.538 -0.282632 20.4057 0.848872L16.3259 4.92876L21.5014 10.1043C22.7041 9.69788 24.0833 9.97051 25.042 10.9292C26.0053 11.8941 26.276 13.285 25.8597 14.4916L30.8475 19.4796C32.0542 19.0639 33.4466 19.3328 34.4104 20.2982C35.7574 21.6447 35.7574 23.827 34.4104 25.1744C33.0631 26.5219 30.8807 26.5219 29.5327 25.1744C28.5195 24.1601 28.2691 22.6721 28.7821 21.4239L24.1305 16.7724L24.13 29.0133C24.4672 29.18 24.7752 29.4002 25.042 29.6654C26.389 31.0119 26.389 33.1944 25.042 34.5428C23.6946 35.8896 21.5112 35.8896 20.1658 34.5428C18.8188 33.1944 18.8188 31.0121 20.1658 29.6656C20.4886 29.3426 20.8722 29.0868 21.2945 28.9131V16.5581C20.8716 16.3855 20.4878 16.1295 20.1658 15.8056C19.1452 14.7864 18.8998 13.2889 19.4228 12.0358L14.3209 6.93336L0.849023 20.4044C-0.283008 21.5369 -0.283008 23.3723 0.849023 24.5039L20.4968 44.1507C21.628 45.2823 23.4628 45.2823 24.5953 44.1507L44.1512 24.5952C45.2828 23.4631 45.2828 21.6267 44.1512 20.4952" fill="#DE4C36"/>
</g>
<defs>
<clipPath id="clip0">
<rect width="45" height="45" fill="white"/>
</clipPath>
</defs>
</svg>
