<svg width="325" height="159" viewBox="0 0 325 159" fill="none" xmlns="http://www.w3.org/2000/svg">
<path d="M7.67578 127L26.7188 29.7344L57.7734 100.047L89.9414 29.7344L107.051 127H93.0469L84.3164 72.3906L57.5391 131.16L31.5234 72.332L21.7969 127H7.67578ZM150.22 69.9297H163.463V127H150.22V121.023C144.791 126.102 138.951 128.641 132.701 128.641C124.81 128.641 118.287 125.789 113.13 120.086C108.013 114.266 105.455 107 105.455 98.2891C105.455 89.7344 108.013 82.6055 113.13 76.9023C118.248 71.1992 124.654 68.3477 132.349 68.3477C138.99 68.3477 144.947 71.082 150.22 76.5508V69.9297ZM118.931 98.2891C118.931 103.758 120.396 108.211 123.326 111.648C126.334 115.125 130.123 116.863 134.693 116.863C139.576 116.863 143.521 115.184 146.529 111.824C149.537 108.348 151.041 103.934 151.041 98.582C151.041 93.2305 149.537 88.8164 146.529 85.3398C143.521 81.9414 139.615 80.2422 134.81 80.2422C130.279 80.2422 126.49 81.9609 123.443 85.3984C120.435 88.875 118.931 93.1719 118.931 98.2891ZM164.503 69.9297H177.687V75.0273C180.109 72.4883 182.257 70.75 184.132 69.8125C186.046 68.8359 188.312 68.3477 190.929 68.3477C194.405 68.3477 198.038 69.4805 201.827 71.7461L195.792 83.8164C193.292 82.0195 190.851 81.1211 188.468 81.1211C181.28 81.1211 177.687 86.5508 177.687 97.4102V127H164.503V69.9297ZM211.423 82.2344V127H198.18V82.2344H193.493V69.9297H198.18V47.8984C198.18 40.7109 199.43 35.6328 201.93 32.6641C205.368 28.5234 210.368 26.4531 216.93 26.4531C219.274 26.4531 222.223 27.1367 225.778 28.5039V41.9805L224.43 41.2773C221.579 39.832 219.235 39.1094 217.399 39.1094C215.055 39.1094 213.473 39.9492 212.653 41.6289C211.833 43.2695 211.423 46.4336 211.423 51.1211V69.9297H225.778V82.2344H211.423ZM217.795 69.9297H230.979V75.0273C233.401 72.4883 235.549 70.75 237.424 69.8125C239.338 68.8359 241.604 68.3477 244.221 68.3477C247.698 68.3477 251.33 69.4805 255.12 71.7461L249.084 83.8164C246.584 82.0195 244.143 81.1211 241.76 81.1211C234.573 81.1211 230.979 86.5508 230.979 97.4102V127H217.795V69.9297ZM262.137 69.9297V102.684C262.137 112.137 265.867 116.863 273.328 116.863C280.789 116.863 284.52 112.137 284.52 102.684V69.9297H297.703V102.977C297.703 107.547 297.137 111.492 296.004 114.812C294.91 117.781 293.016 120.457 290.32 122.84C285.867 126.707 280.203 128.641 273.328 128.641C266.492 128.641 260.848 126.707 256.395 122.84C253.66 120.457 251.727 117.781 250.594 114.812C249.5 112.156 248.953 108.211 248.953 102.977V69.9297H262.137Z" fill="black"/>
</svg>
