<svg width="126" height="147" viewBox="0 0 126 147" fill="none" xmlns="http://www.w3.org/2000/svg">
<path d="M8.32031 69.9297H21.5039V75.2031C24.043 72.5469 26.2109 70.75 28.0078 69.8125C29.9219 68.8359 32.3242 68.3477 35.2148 68.3477C41.6602 68.3477 46.7578 71.1602 50.5078 76.7852C54.6484 71.1602 60.2539 68.3477 67.3242 68.3477C80.1758 68.3477 86.6016 76.1406 86.6016 91.7266V127H73.3594V95.3008C73.3594 89.832 72.6953 85.9648 71.3672 83.6992C70 81.3945 67.7539 80.2422 64.6289 80.2422C60.9961 80.2422 58.3398 81.6094 56.6602 84.3438C55.0195 87.0781 54.1992 91.4727 54.1992 97.5273V127H40.957V95.4766C40.957 85.3203 38.0273 80.2422 32.168 80.2422C28.457 80.2422 25.7422 81.6289 24.0234 84.4023C22.3438 87.1758 21.5039 91.5508 21.5039 97.5273V127H8.32031V69.9297ZM101.295 82.2344V127H88.0523V82.2344H83.3648V69.9297H88.0523V47.8984C88.0523 40.7109 89.3023 35.6328 91.8023 32.6641C95.2398 28.5234 100.24 26.4531 106.802 26.4531C109.146 26.4531 112.095 27.1367 115.65 28.5039V41.9805L114.302 41.2773C111.451 39.832 109.107 39.1094 107.271 39.1094C104.927 39.1094 103.345 39.9492 102.525 41.6289C101.705 43.2695 101.295 46.4336 101.295 51.1211V69.9297H115.65V82.2344H101.295Z" fill="black"/>
</svg>
