<svg width="45" height="45" viewBox="0 0 45 45" fill="none" xmlns="http://www.w3.org/2000/svg">
<g clip-path="url(#clip0)">
<path d="M32.613 15.6159L32.5965 15.6089C32.5865 15.6059 32.5772 15.6007 32.5695 15.5936C32.556 15.5791 32.546 15.5618 32.5403 15.5428C32.5346 15.5239 32.5333 15.5039 32.5366 15.4844L33.4448 9.93799L37.7038 14.1935L33.2745 16.0759C33.2622 16.0809 33.2491 16.0833 33.2358 16.083H33.2181C33.2094 16.0773 33.2015 16.0706 33.1945 16.0629C33.0297 15.8796 32.8326 15.7281 32.613 15.6159V15.6159ZM38.7907 15.2779L43.3445 19.8267C44.2902 20.7726 44.7639 21.2444 44.9365 21.7915C44.9624 21.8723 44.9835 21.9533 45 22.0367L34.1169 17.4326C34.111 17.4302 34.1052 17.4279 34.0993 17.4256C34.0557 17.408 34.0052 17.388 34.0052 17.3435C34.0052 17.2988 34.0569 17.2777 34.1003 17.2602L34.1144 17.2542L38.7907 15.2779ZM44.8144 23.4967C44.5794 23.9379 44.1211 24.3957 43.3457 25.1714L38.2113 30.2989L31.5708 28.9176L31.5357 28.9106C31.4768 28.9011 31.4146 28.8906 31.4146 28.8378C31.3893 28.5641 31.3079 28.2985 31.1755 28.0577C31.0431 27.8168 30.8625 27.6057 30.645 27.4377C30.6179 27.4106 30.6251 27.3685 30.6332 27.3296C30.6332 27.3238 30.6332 27.318 30.6357 27.3133L31.8846 19.6543L31.8892 19.6285C31.8962 19.5698 31.9068 19.5017 31.9597 19.5017C32.2273 19.4685 32.4856 19.3824 32.7196 19.2484C32.9536 19.1144 33.1586 18.9352 33.3227 18.7213C33.3332 18.7095 33.3403 18.6966 33.3543 18.6896C33.3919 18.672 33.4366 18.6896 33.4754 18.706L44.8133 23.4967H44.8144V23.4967ZM37.0308 31.4784L28.5878 39.912L30.0328 31.0395L30.0352 31.0277C30.0363 31.0162 30.0387 31.0048 30.0422 30.9938C30.054 30.9657 30.0844 30.9539 30.114 30.9421L30.128 30.9361C30.4444 30.8013 30.7243 30.5933 30.9447 30.3295C30.9728 30.2966 31.0069 30.2648 31.0504 30.259C31.0616 30.2573 31.0732 30.2573 31.0845 30.259L37.0294 31.4796L37.0306 31.4784H37.0308ZM26.8007 41.6971L25.849 42.6477L15.3278 27.4588C15.324 27.4532 15.32 27.4477 15.316 27.4423C15.2996 27.42 15.2819 27.3978 15.2856 27.372C15.2866 27.3532 15.2984 27.3368 15.3114 27.3228L15.323 27.3075C15.3547 27.2604 15.3819 27.2134 15.4113 27.163L15.4346 27.122L15.4382 27.1185C15.4547 27.0904 15.4698 27.0633 15.4981 27.048C15.5227 27.0362 15.557 27.041 15.5839 27.0468L27.2401 29.448C27.2728 29.4532 27.3034 29.4664 27.3294 29.4866C27.3447 29.5021 27.3482 29.5184 27.3517 29.5373C27.4331 29.8447 27.5845 30.1291 27.794 30.3683C28.0036 30.6075 28.2655 30.795 28.5595 30.9163C28.5924 30.9326 28.5783 30.969 28.563 31.0077C28.5554 31.0247 28.5495 31.0424 28.5455 31.0606C28.3987 31.9525 27.1392 39.6257 26.8007 41.6971V41.6971ZM24.8128 43.6817C24.1114 44.3753 23.6978 44.7425 23.2302 44.8905C22.7692 45.0361 22.2744 45.0361 21.8134 44.8905C21.2658 44.7167 20.7923 44.245 19.8464 43.299L9.28055 32.7447L12.0403 28.4692C12.052 28.4477 12.0681 28.4289 12.0874 28.414C12.1168 28.3929 12.1591 28.4024 12.1943 28.414C12.8278 28.6049 13.5078 28.5705 14.1187 28.3166C14.1504 28.305 14.1822 28.2968 14.207 28.3191C14.2193 28.3303 14.2304 28.3428 14.2399 28.3565L24.8128 43.6829V43.6817V43.6817ZM8.26189 31.7271L5.83805 29.3061L10.6246 27.2663C10.6368 27.261 10.65 27.2582 10.6634 27.2581C10.7033 27.2581 10.7269 27.298 10.748 27.3344C10.7961 27.4082 10.8471 27.4803 10.9009 27.5504L10.916 27.569C10.9301 27.5891 10.9208 27.6089 10.9067 27.6277L8.26295 31.7271H8.26189ZM4.76543 28.2345L1.69893 25.1714C1.17721 24.6504 0.798926 24.2724 0.535781 23.9474L9.85975 25.8792L9.8949 25.885C9.95256 25.8944 10.0162 25.9049 10.0162 25.9589C10.0162 26.0176 9.94676 26.0447 9.88787 26.0668L9.86098 26.0786L4.76543 28.2345V28.2345ZM0 22.3722C0.0106663 22.175 0.0462214 21.9798 0.10582 21.7915C0.279668 21.2444 0.751992 20.7726 1.69893 19.8267L5.62307 15.9068C7.42989 18.5262 9.24161 21.1423 11.0582 23.7549C11.0899 23.7971 11.125 23.844 11.0888 23.8792C10.9172 24.0682 10.7457 24.2747 10.6247 24.499C10.6116 24.5277 10.5913 24.5528 10.5659 24.5716C10.5506 24.5811 10.5342 24.5776 10.5166 24.5741H10.5142L0 22.3712V22.3724V22.3722ZM6.67354 14.8576L11.95 9.58696C12.4457 9.80405 14.2504 10.5657 15.8646 11.2463C17.0866 11.763 18.2004 12.2325 18.5505 12.3849C18.5857 12.3989 18.6175 12.413 18.6328 12.4481C18.6421 12.4692 18.6376 12.4963 18.6328 12.5186C18.5493 12.8992 18.5617 13.2945 18.669 13.669C18.7763 14.0435 18.975 14.3854 19.2473 14.664C19.2825 14.6992 19.2473 14.7497 19.2168 14.7931L19.2002 14.8177L13.8428 23.107C13.8287 23.1306 13.8157 23.1504 13.7921 23.1657C13.764 23.1833 13.7241 23.175 13.6911 23.1669C13.4827 23.1124 13.2685 23.0833 13.0532 23.0801C12.8605 23.0801 12.6513 23.1153 12.4399 23.1539H12.4386C12.4153 23.1574 12.394 23.1622 12.3754 23.1481C12.3546 23.1312 12.3367 23.111 12.3224 23.0884L6.67354 14.8576ZM13.0157 8.52243L19.8466 1.69913C20.7923 0.754302 21.2658 0.28145 21.8132 0.108833C22.2743 -0.0368067 22.7691 -0.0368067 23.2302 0.108833C23.7778 0.28145 24.2511 0.754302 25.197 1.69913L26.6774 3.17797L21.8192 10.6937C21.8072 10.7155 21.7908 10.7347 21.771 10.7499C21.7417 10.77 21.7005 10.7617 21.6652 10.7499C21.2822 10.6338 20.8767 10.6127 20.4836 10.6884C20.0906 10.764 19.7219 10.9342 19.4094 11.1843C19.3778 11.2172 19.3307 11.1983 19.2908 11.1808C18.6562 10.905 13.7217 8.82178 13.0155 8.5226L13.0157 8.52243ZM27.7089 4.2084L32.1949 8.68907L31.1138 15.3765V15.3941C31.1129 15.4093 31.1097 15.4244 31.1045 15.4387C31.0927 15.4621 31.0692 15.4668 31.0456 15.4739C30.8146 15.5438 30.597 15.6521 30.4019 15.7943C30.3935 15.8003 30.3856 15.8069 30.3783 15.8142C30.3653 15.8282 30.3525 15.8413 30.3314 15.8435C30.3142 15.8441 30.297 15.8413 30.2808 15.8353L23.4452 12.9342L23.4323 12.9282C23.3888 12.9106 23.3371 12.8895 23.3371 12.8449C23.2969 12.4643 23.1725 12.0975 22.9729 11.771C22.94 11.7171 22.9036 11.6608 22.9317 11.6056L27.7089 4.2084V4.2084ZM23.0892 14.3083L29.4971 17.0193C29.5323 17.0357 29.5712 17.051 29.5864 17.0874C29.5925 17.1092 29.5925 17.1323 29.5864 17.1542C29.5676 17.2482 29.5513 17.3549 29.5513 17.463V17.6425C29.5513 17.6871 29.5054 17.7058 29.463 17.7233L29.4502 17.7281C28.4351 18.1612 15.1986 23.7992 15.1785 23.7992C15.1587 23.7992 15.1374 23.7992 15.1175 23.7794C15.0824 23.7442 15.1175 23.695 15.1492 23.6502L15.1657 23.6268L20.4316 15.482L20.4409 15.4679C20.4715 15.4185 20.5068 15.3633 20.5632 15.3633L20.616 15.3716C20.7359 15.3879 20.8417 15.4032 20.9486 15.4032C21.7475 15.4032 22.4877 15.0147 22.9342 14.3505C22.9447 14.3329 22.9583 14.3171 22.9741 14.3035C23.0057 14.2801 23.0528 14.2919 23.0892 14.3083V14.3083ZM15.7507 25.0879L30.1787 18.9417C30.1787 18.9417 30.1997 18.9417 30.2198 18.9617C30.2984 19.0403 30.3653 19.093 30.43 19.1424L30.4617 19.1623C30.4912 19.1788 30.5205 19.1974 30.5228 19.228C30.5228 19.2398 30.5228 19.2468 30.5205 19.2574L29.2845 26.8413L29.2797 26.8719C29.2716 26.9304 29.2634 26.9974 29.2082 26.9974C28.8787 27.0195 28.5597 27.1216 28.2786 27.2948C27.9975 27.468 27.7629 27.7071 27.595 27.9914L27.589 28.0007C27.5727 28.0278 27.5574 28.0535 27.5303 28.0675C27.5057 28.0795 27.4741 28.0748 27.4481 28.069L15.9423 25.6982C15.9305 25.6959 15.7637 25.0891 15.7507 25.0879V25.0879Z" fill="url(#paint0_radial)"/>
</g>
<defs>
<radialGradient id="paint0_radial" cx="0" cy="0" r="1" gradientUnits="userSpaceOnUse" gradientTransform="translate(22.5 -22.5005) scale(45 45.0001)">
<stop stop-color="#20C6B7"/>
<stop offset="1" stop-color="#4D9ABF"/>
</radialGradient>
<clipPath id="clip0">
<rect width="45" height="45" fill="white"/>
</clipPath>
</defs>
</svg>
