<svg width="60" height="45" viewBox="0 0 60 45" fill="none" xmlns="http://www.w3.org/2000/svg">
<path d="M51.6284 25.9017C49.541 25.9125 47.7267 26.4153 46.2077 27.1585C45.6502 26.0545 45.0928 25.0711 44.9946 24.3497C44.8852 23.5083 44.7541 22.9945 44.8852 21.9891C45.0164 20.9836 45.6066 19.5518 45.5955 19.4426C45.5848 19.3334 45.4643 18.8196 44.2622 18.8088C43.0601 18.7978 42.0218 19.0383 41.9016 19.3552C41.7813 19.672 41.5519 20.3935 41.3988 21.1364C41.1912 22.2295 38.9946 26.131 37.7379 28.1747C37.3334 27.3771 36.9837 26.6775 36.907 26.1202C36.7978 25.2788 36.6666 24.765 36.7978 23.7595C36.9291 22.7541 37.5192 21.3225 37.5082 21.2131C37.4972 21.1038 37.377 20.5901 36.1748 20.5793C34.9725 20.5683 33.9342 20.8088 33.8142 21.1256C33.694 21.4428 33.5627 22.1857 33.3115 22.9071C33.06 23.6285 30.142 30.1423 29.377 31.8251C29.0679 32.5062 28.7436 33.1804 28.4044 33.847C28.4044 33.847 28.3934 33.8799 28.3605 33.9345C28.254 34.1435 28.1448 34.3512 28.0329 34.5574V34.5682C27.8688 34.8635 27.694 35.1366 27.6066 35.1366C27.5409 35.1366 27.4207 34.3498 27.6284 33.2787C28.0655 31.0165 29.1037 27.4974 29.093 27.3771C29.093 27.3115 29.2896 26.6996 28.4154 26.3824C27.5627 26.0656 27.2569 26.5901 27.1802 26.5901C27.1038 26.5901 27.049 26.776 27.049 26.776C27.049 26.776 28.0001 22.8197 25.2349 22.8197C23.5083 22.8197 21.1256 24.7104 19.9453 26.4153C18.6035 27.1454 17.2629 27.8777 15.9234 28.6121C15.2789 28.9728 14.6121 29.3335 13.9891 29.6721C13.9453 29.6285 13.9017 29.5737 13.8579 29.5301C10.5136 25.9563 4.32797 23.4317 4.59023 18.634C4.68867 16.8853 5.28961 12.2951 16.47 6.72142C25.672 2.1858 32.9946 3.44252 34.2623 6.22947C36.0764 10.2078 30.3389 17.5957 20.8305 18.6666C17.2022 19.0711 15.3005 17.6721 14.8198 17.1476C14.317 16.601 14.2404 16.5682 14.0545 16.6777C13.7487 16.8417 13.9453 17.3335 14.0545 17.6175C14.3388 18.3605 15.5081 19.672 17.4863 20.317C19.2349 20.8852 23.4863 21.2023 28.6338 19.2131C34.3934 16.9835 38.8962 10.7869 37.5738 5.59572C36.2513 0.327907 27.5081 -1.40975 19.2349 1.53002C14.317 3.27892 8.98359 6.03283 5.14758 9.61759C0.590156 13.8797 -0.13125 17.5847 0.163828 19.1367C1.22414 24.6448 8.81977 28.2295 11.858 30.8852C11.7049 30.9727 11.5627 31.0493 11.4427 31.1149C9.92344 31.8689 4.13109 34.8961 2.68852 38.0984C1.0493 41.7267 2.95102 44.3281 4.20773 44.6775C8.10937 45.7596 12.1202 43.8143 14.2732 40.601C16.4262 37.388 16.1639 33.2131 15.1695 31.3006C15.1584 31.2788 15.1477 31.2567 15.1256 31.2349C15.5191 31.0055 15.9234 30.765 16.317 30.5356C17.0402 30.108 17.7726 29.6962 18.5137 29.3004C18.142 30.3169 17.8688 31.53 17.7377 33.2787C17.5737 35.3335 18.4151 37.9999 19.519 39.049C20.0109 39.5084 20.5901 39.5192 20.9618 39.5192C22.2513 39.5192 22.8307 38.4481 23.4755 37.1803C24.2623 35.6285 24.9727 33.8253 24.9727 33.8253C24.9727 33.8253 24.0874 38.6995 26.4919 38.6995C27.3661 38.6995 28.2513 37.5628 28.6448 36.9837V36.9945C28.6448 36.9945 28.6666 36.9617 28.7105 36.8853C28.7979 36.7432 28.8525 36.6556 28.8525 36.6556V36.634C29.2022 36.0218 29.9892 34.6338 31.1585 32.3278C32.6667 29.3553 34.1203 25.6395 34.1203 25.6395C34.1203 25.6395 34.2516 26.5465 34.6995 28.0547C34.962 28.9399 35.508 29.9126 35.9454 30.8524C35.5957 31.3444 35.377 31.6174 35.377 31.6174L35.388 31.6285C35.1038 31.9999 34.7979 32.4042 34.459 32.798C33.2677 34.2185 31.8471 35.8472 31.6502 36.3169C31.4205 36.8742 31.4754 37.2788 31.9127 37.6067C32.2296 37.8471 32.7977 37.8797 33.3771 37.8471C34.4482 37.7705 35.2022 37.5082 35.5737 37.3444C36.153 37.1367 36.8306 36.8196 37.4644 36.3497C38.6339 35.4863 39.3441 34.2513 39.2787 32.6231C39.2459 31.7269 38.9508 30.8306 38.5901 29.989C38.6995 29.8362 38.7977 29.6831 38.9072 29.5301C40.7541 26.8306 42.1859 23.8688 42.1859 23.8688C42.1859 23.8688 42.3171 24.7758 42.765 26.2842C42.9837 27.0492 43.4318 27.8799 43.8251 28.6885C42.0874 30.0985 41.0163 31.7377 40.6338 32.8088C39.9455 34.7979 40.4808 35.6939 41.4973 35.9016C41.9562 36 42.612 35.7813 43.0929 35.5737C43.7048 35.3771 44.4263 35.0384 45.1148 34.5354C46.2844 33.6722 47.4098 32.4699 47.3442 30.8417C47.3114 30.0985 47.1148 29.366 46.8415 28.6556C48.3169 28.0439 50.2186 27.705 52.6446 27.9891C57.847 28.601 58.8743 31.8469 58.6774 33.2133C58.4808 34.5792 57.3879 35.3224 57.0274 35.5519C56.6665 35.7816 56.5465 35.858 56.5793 36.0218C56.6229 36.2623 56.7977 36.2515 57.1038 36.2077C57.5302 36.1313 59.8362 35.1038 59.9344 32.5901C60.0984 29.377 57.0382 25.8689 51.6284 25.9017V25.9017ZM11.4973 39.4317C9.77039 41.3114 7.36617 42.0218 6.32789 41.4209C5.2132 40.7759 5.65031 37.9999 7.77047 36.011C9.06 34.7979 10.7213 33.672 11.8252 32.9836C12.0764 32.8306 12.4481 32.6121 12.8963 32.3388C12.9727 32.295 13.0165 32.2732 13.0165 32.2732L13.2788 32.1092C14.0545 34.9507 13.3116 37.4536 11.4973 39.4317V39.4317ZM24.0656 30.8852C23.4645 32.3499 22.2077 36.0985 21.4427 35.8908C20.787 35.716 20.3824 32.8744 21.3115 30.0656C21.7814 28.6556 22.7759 26.9726 23.3552 26.3171C24.2951 25.2678 25.3334 24.9178 25.5846 25.3444C25.9017 25.9017 24.4371 29.9672 24.0656 30.8852V30.8852ZM34.4372 35.847C34.1857 35.9782 33.9455 36.0656 33.836 36C33.7596 35.9562 33.9455 35.7813 33.9455 35.7813C33.9455 35.7813 35.246 34.3826 35.7595 33.7486C36.0548 33.3771 36.4043 32.94 36.776 32.4481V32.5901C36.776 34.2624 35.1584 35.3881 34.437 35.847H34.4372ZM42.4371 34.0219C42.2513 33.8906 42.2841 33.4535 42.907 32.0874C43.1475 31.5518 43.7156 30.6558 44.6885 29.7924C44.7977 30.142 44.8744 30.481 44.8634 30.7978C44.8523 32.9072 43.3444 33.694 42.4371 34.0219Z" fill="#CD6799"/>
</svg>
