<svg width="45" height="45" viewBox="0 0 45 45" fill="none" xmlns="http://www.w3.org/2000/svg">
<path d="M13.08 6.43686L19.9163 6.44061L22.5113 10.1081L25.0875 6.44061L31.9181 6.43873L22.5431 22.2L13.08 6.43686Z" fill="black"/>
<path d="M27.375 4.55624C27.0739 4.55599 26.7771 4.62827 26.5098 4.76698C26.2425 4.90569 26.0126 5.10674 25.8394 5.35312L22.5 10.1062L19.1419 5.34937C18.9687 5.1042 18.7392 4.9042 18.4726 4.76618C18.206 4.62816 17.9102 4.55617 17.61 4.55624H11.9625L18.6188 15.6562L22.5563 22.2187L26.4375 15.6562L33.0375 4.55624H27.375Z" fill="#34485E"/>
<path d="M41.2518 4.57124L33.0319 4.56561L26.4375 15.6562L22.5562 22.2187L18.6187 15.6562L11.97 4.56936L3.73873 4.61436C3.40937 4.61618 3.08631 4.70473 2.80205 4.87108C2.51779 5.03744 2.28236 5.27573 2.11947 5.56199C1.95657 5.84824 1.87195 6.17236 1.87413 6.50171C1.8763 6.83106 1.96519 7.15403 2.13185 7.43811L20.9194 39.51C21.0849 39.7926 21.3215 40.027 21.6058 40.1897C21.89 40.3524 22.212 40.4378 22.5395 40.4375C22.867 40.4371 23.1887 40.3509 23.4726 40.1875C23.7565 40.0241 23.9926 39.7893 24.1575 39.5062L42.87 7.39124C43.0362 7.10643 43.1243 6.78282 43.1255 6.45307C43.1267 6.12332 43.0409 5.79908 42.8768 5.51307C42.7127 5.22705 42.4761 4.98938 42.1908 4.82402C41.9055 4.65866 41.5816 4.57147 41.2518 4.57124Z" fill="#41B882"/>
</svg>
