<svg width="45" height="50" viewBox="0 0 45 50" fill="none" xmlns="http://www.w3.org/2000/svg">
<path d="M22.5 0.00744629L45 12.4911V37.4664L22.5 49.95L0 37.4664V12.4911L22.5 0.00744629Z" fill="white"/>
<path d="M40.9839 36.6012L23.2472 46.4529V38.7914L34.3019 32.8203L40.9839 36.6012ZM42.198 35.5269V14.9403L35.7114 18.6128V31.8541L42.198 35.5269V35.5269ZM3.94804 36.601L21.6849 46.4448V38.7831L10.6302 32.8203L3.94804 36.6012V36.601ZM2.73392 35.5269V14.9403L9.22077 18.6128V31.8541L2.73392 35.5269V35.5269ZM3.48978 13.6079L21.6849 3.51431V10.9264L10.0274 17.2138L9.93392 17.2638L3.48978 13.6078V13.6079ZM41.4339 13.6079L23.2472 3.51414V10.9262L34.8963 17.2219L34.9896 17.2719L41.4339 13.6076V13.6079Z" fill="#8ED6FB"/>
<path d="M21.6849 37.0426L10.783 31.1547V19.504L21.6849 25.675V37.0426V37.0426ZM23.2473 37.0426L34.1492 31.1631V19.504L23.2473 25.675V37.0426V37.0426ZM11.5132 18.1548L22.4661 12.2503L33.4102 18.1548L22.4661 24.3509L11.5132 18.1548V18.1548Z" fill="#1C78C0"/>
</svg>
